<mxfile host="app.diagrams.net" modified="2021-09-15T10:05:32.411Z" agent="5.0 (Macintosh; Intel Mac OS X 10_15_6) AppleWebKit/537.36 (KHTML, like Gecko) Chrome/93.0.4577.63 Safari/537.36" etag="9JX6jE5goarl5j7vM0c7" version="15.2.1" type="github">
  <diagram id="C5RBs43oDa-KdzZeNtuy" name="Page-1">
    <mxGraphModel dx="1426" dy="749" grid="0" gridSize="10" guides="1" tooltips="1" connect="1" arrows="1" fold="1" page="1" pageScale="1" pageWidth="827" pageHeight="1169" math="0" shadow="0">
      <root>
        <mxCell id="WIyWlLk6GJQsqaUBKTNV-0" />
        <mxCell id="WIyWlLk6GJQsqaUBKTNV-1" parent="WIyWlLk6GJQsqaUBKTNV-0" />
        <mxCell id="MC6F5oXFD5IwIdk5tqou-30" value="&lt;b&gt;client-1&lt;/b&gt;" style="ellipse;whiteSpace=wrap;html=1;aspect=fixed;fillColor=#00FF00;dashed=1;align=left;opacity=50;" vertex="1" parent="WIyWlLk6GJQsqaUBKTNV-1">
          <mxGeometry x="74" y="59" width="281" height="281" as="geometry" />
        </mxCell>
        <mxCell id="MC6F5oXFD5IwIdk5tqou-31" value="&lt;b&gt;client-2&lt;/b&gt;" style="ellipse;whiteSpace=wrap;html=1;aspect=fixed;fillColor=#67AB9F;dashed=1;align=right;strokeColor=#000000;opacity=50;" vertex="1" parent="WIyWlLk6GJQsqaUBKTNV-1">
          <mxGeometry x="258" y="93" width="255" height="255" as="geometry" />
        </mxCell>
        <mxCell id="MC6F5oXFD5IwIdk5tqou-23" value="资源7" style="ellipse;whiteSpace=wrap;html=1;aspect=fixed;fillColor=#ffe6cc;strokeColor=#d79b00;" vertex="1" parent="WIyWlLk6GJQsqaUBKTNV-1">
          <mxGeometry x="276" y="139" width="53" height="53" as="geometry" />
        </mxCell>
        <mxCell id="MC6F5oXFD5IwIdk5tqou-24" value="资源6" style="ellipse;whiteSpace=wrap;html=1;aspect=fixed;fillColor=#ffe6cc;strokeColor=#d79b00;" vertex="1" parent="WIyWlLk6GJQsqaUBKTNV-1">
          <mxGeometry x="362" y="105" width="53" height="53" as="geometry" />
        </mxCell>
        <mxCell id="MC6F5oXFD5IwIdk5tqou-25" value="资源5" style="ellipse;whiteSpace=wrap;html=1;aspect=fixed;fillColor=#ffe6cc;strokeColor=#d79b00;" vertex="1" parent="WIyWlLk6GJQsqaUBKTNV-1">
          <mxGeometry x="364" y="287" width="53" height="53" as="geometry" />
        </mxCell>
        <mxCell id="MC6F5oXFD5IwIdk5tqou-26" value="资源4" style="ellipse;whiteSpace=wrap;html=1;aspect=fixed;fillColor=#ffe6cc;strokeColor=#d79b00;" vertex="1" parent="WIyWlLk6GJQsqaUBKTNV-1">
          <mxGeometry x="400" y="192" width="53" height="53" as="geometry" />
        </mxCell>
        <mxCell id="MC6F5oXFD5IwIdk5tqou-27" value="资源3" style="ellipse;whiteSpace=wrap;html=1;aspect=fixed;fillColor=#ffe6cc;strokeColor=#d79b00;" vertex="1" parent="WIyWlLk6GJQsqaUBKTNV-1">
          <mxGeometry x="281" y="234" width="53" height="53" as="geometry" />
        </mxCell>
        <mxCell id="MC6F5oXFD5IwIdk5tqou-28" value="资源2" style="ellipse;whiteSpace=wrap;html=1;aspect=fixed;fillColor=#ffe6cc;strokeColor=#d79b00;" vertex="1" parent="WIyWlLk6GJQsqaUBKTNV-1">
          <mxGeometry x="190" y="128" width="53" height="53" as="geometry" />
        </mxCell>
        <mxCell id="MC6F5oXFD5IwIdk5tqou-29" value="资源1" style="ellipse;whiteSpace=wrap;html=1;aspect=fixed;fillColor=#ffe6cc;strokeColor=#d79b00;" vertex="1" parent="WIyWlLk6GJQsqaUBKTNV-1">
          <mxGeometry x="188" y="226" width="53" height="53" as="geometry" />
        </mxCell>
      </root>
    </mxGraphModel>
  </diagram>
</mxfile>
